<?xml version="1.0" encoding="UTF-8" standalone="no"?>
<!-- Created with Inkscape (http://www.inkscape.org/) -->

<svg
   xmlns:dc="http://purl.org/dc/elements/1.1/"
   xmlns:cc="http://creativecommons.org/ns#"
   xmlns:rdf="http://www.w3.org/1999/02/22-rdf-syntax-ns#"
   xmlns:svg="http://www.w3.org/2000/svg"
   xmlns="http://www.w3.org/2000/svg"
   xmlns:sodipodi="http://sodipodi.sourceforge.net/DTD/sodipodi-0.dtd"
   xmlns:inkscape="http://www.inkscape.org/namespaces/inkscape"
   width="128"
   height="256"
   id="svg2"
   version="1.1"
   inkscape:version="0.48.2 r9819"
   sodipodi:docname="child.svg"
   inkscape:export-filename="D:\Code\limejs\economy\assets\childb.png"
   inkscape:export-xdpi="90"
   inkscape:export-ydpi="90">
  <defs
     id="defs4" />
  <sodipodi:namedview
     id="base"
     pagecolor="#ffffff"
     bordercolor="#666666"
     borderopacity="1.0"
     inkscape:pageopacity="0.0"
     inkscape:pageshadow="2"
     inkscape:zoom="4"
     inkscape:cx="13.374408"
     inkscape:cy="126.31916"
     inkscape:document-units="px"
     inkscape:current-layer="layer2"
     showgrid="false"
     inkscape:window-width="1920"
     inkscape:window-height="1018"
     inkscape:window-x="1072"
     inkscape:window-y="832"
     inkscape:window-maximized="1" />
  <metadata
     id="metadata7">
    <rdf:RDF>
      <cc:Work
         rdf:about="">
        <dc:format>image/svg+xml</dc:format>
        <dc:type
           rdf:resource="http://purl.org/dc/dcmitype/StillImage" />
        <dc:title></dc:title>
      </cc:Work>
    </rdf:RDF>
  </metadata>
  <g
     inkscape:label="A"
     inkscape:groupmode="layer"
     id="layer1"
     transform="translate(0,-796.36218)"
     style="display:none">
    <path
       style="fill:#ffe88d;fill-opacity:1;stroke:none"
       d="M 10.34375,55.09375 C 8.1594082,54.923393 6.5722685,57.809231 4,64.3125 c 2.6929596,7.30946 8.95542,28.85529 24.34375,40.78125 15.38834,11.92596 13.41688,9.6335 19.1875,14.25 9.414269,11.35501 4.823263,26.80362 4.4375,34.25 -0.394405,7.61321 -2.443211,17.0333 -5.15625,24.5625 -6.42634,17.8343 -26.5,33.75 -26.5,33.75 -3.218536,9.7888 22.401946,8.9737 35,0.5 0,0 12.34877,-11.19165 18.4375,-24.71875 1.90564,-4.2337 3.0625,-13.53125 3.0625,-13.53125 0,0 4.3194,3.7454 5.65625,7.9375 4.07178,12.7684 10.4375,26.3125 10.4375,26.3125 5.76957,5.2085 20.2787,6.4647 30,0.5 0,0 -7.56493,-19.36284 -11.4375,-35.3125 -1.87144,-7.70776 -5.5746,-15.01499 -8.46875,-19.96875 0.98193,-0.72108 1.09424,-1.53225 1.46875,-3.375 2.70363,5.92251 5.38222,8.62107 9.375,3.4375 5.15138,-11.30255 -6.95819,-42.89674 -10.6875,-45.25 -8.040407,-5.07363 -8.91275,-5.2326 -12.4375,-12.75 -3.871755,-8.25747 -3.25,-16.03125 -3.25,-16.03125 l -14.625,-4.625 C 68.61196,86.5725 68.60042,96.20146 60.90625,98.125 c -7.69417,1.92354 -9.67954,4.80886 -22.625,-6.21875 -10.38713,-8.8483 -18.82646,-19.90596 -23,-33.3125 -2.095924,-2.193941 -3.626895,-3.397786 -4.9375,-3.5 z"
       transform="translate(0,796.36218)"
       id="path2989"
       inkscape:connector-curvature="0"
       sodipodi:nodetypes="scscssccscsccscccssccsscs" />
    <path
       style="fill:#ecfff9;fill-opacity:1;stroke:#daeeed;stroke-width:4;stroke-linejoin:round;stroke-miterlimit:4;stroke-opacity:1;stroke-dasharray:none"
       d="m 53.750077,937.45778 c -2.355236,6.67424 -4.353149,22.99121 -4.255204,29.47836 9.53496,0.28181 25.982959,-2.2123 29.551298,9.37057 1.958632,0.12773 9.246563,-1.43854 11.2371,-1.43184 4.836194,-14.83121 11.521299,-6.81969 21.083449,-14.65622 -1.88295,-7.96455 -3.11316,-21.77897 -6.17462,-25.5009 -19.187042,-3.33602 -34.828926,-1.76855 -51.442023,2.74005 z"
       id="path3771"
       inkscape:connector-curvature="0"
       sodipodi:nodetypes="cccccccc" />
    <path
       style="fill:#8c3ec5;fill-opacity:1;stroke:none"
       d="m 81.675253,892.52639 -6.380204,9.25888 5.964913,5.09207 -2.122398,30.38128 10.646446,13.77773 8.281408,-17.78033 -10.128679,-28.33839 4.536611,-5.81174 -6.548097,-6.8295"
       id="path3761"
       inkscape:connector-curvature="0"
       sodipodi:nodetypes="ccccccccc" />
    <path
       style="fill:#ffe88d;fill-opacity:1;stroke:none"
       d="m 77.034944,824.64204 c -31.532807,13.04115 -38.524855,35.75382 -21.362084,59.0924 18.250501,24.81771 41.461963,8.9884 50.45339,-0.13048 10.7775,-10.93026 -2.51944,-69.95136 -29.091306,-58.96192 z"
       id="path2985"
       inkscape:connector-curvature="0"
       sodipodi:nodetypes="ssss" />
    <path
       style="fill:#e8ac1d;fill-opacity:1;stroke:none"
       d="m 72.683318,839.36668 c 7.963524,2.70222 25.756205,-0.64836 28.794352,-5.9275 0,0 -3.866197,-8.9755 -13.354145,-10.59874 -18.778382,-3.21267 -38.4595,9.91285 -43.170604,24.36405 -4.903444,15.04119 1.496668,32.7344 6.796065,38.81285 5.29939,6.07847 17.662484,9.15521 17.662484,9.15521 0,0 -19.792237,-22.49553 -15.375606,-31.92418 4.41664,-9.42866 15.435516,2.24892 15.435516,2.24892 0,0 10.015739,-15.14815 3.211938,-26.13061 z"
       id="path2991"
       inkscape:connector-curvature="0"
       sodipodi:nodetypes="ccssscscc" />
    <g
       id="g3766">
      <path
         sodipodi:nodetypes="ssss"
         inkscape:connector-curvature="0"
         id="path2994"
         d="m 102.23038,867.85431 c -7.109293,5.86427 -9.381764,14.17371 -5.956677,18.17932 3.425087,4.00562 14.564057,-2.82633 16.231937,-8.47341 1.63808,-5.54623 -5.15842,-13.92666 -10.27526,-9.70591 z"
         style="fill:#cae7e6;fill-opacity:1;stroke:none" />
      <path
         transform="matrix(-0.25562829,-0.96677514,0.96677514,-0.25562829,53.490746,1009.606)"
         d="m 114.81647,87.134064 a 5.1265244,4.0216699 0 1 1 -10.25305,0 5.1265244,4.0216699 0 1 1 10.25305,0 z"
         sodipodi:ry="4.0216699"
         sodipodi:rx="5.1265244"
         sodipodi:cy="87.134064"
         sodipodi:cx="109.68994"
         id="path3764"
         style="fill:none;stroke:#cae7e6;stroke-width:3;stroke-miterlimit:4;stroke-opacity:1;stroke-dasharray:none"
         sodipodi:type="arc" />
    </g>
  </g>
  <g
     inkscape:groupmode="layer"
     id="layer2"
     inkscape:label="B"
     style="display:inline">
    <path
       sodipodi:nodetypes="sssccscsccscccssccss"
       inkscape:connector-curvature="0"
       id="path3789"
       d="m 47.53125,119.34375 c 3.830715,14.24396 -3.662018,25.38941 -4.047781,32.83579 -0.394405,7.61321 -2.443211,17.0333 -5.15625,24.5625 -6.42634,17.8343 -18.014719,35.16421 -18.014719,35.16421 -3.218536,9.7888 22.401946,8.9737 35,0.5 0,0 3.863489,-12.60586 9.952219,-26.13296 1.90564,-4.2337 3.0625,-13.53125 3.0625,-13.53125 0,0 4.3194,3.7454 5.65625,7.9375 4.07178,12.7684 18.922781,27.72671 18.922781,27.72671 5.76957,5.2085 20.2787,6.4647 30,0.5 0,0 -16.05021,-20.77705 -19.92278,-36.72671 -1.87144,-7.70776 -5.574601,-15.01499 -8.468751,-19.96875 0.98193,-0.72108 1.09424,-1.53225 1.46875,-3.375 2.70363,5.92251 5.382221,8.62107 9.375001,3.4375 5.15138,-11.30255 1.52709,-41.48253 -2.20222,-43.83579 -8.040407,-5.07363 -8.91275,-5.2326 -12.4375,-12.75 -3.871755,-8.25747 -3.25,-16.03125 -3.25,-16.03125 l -14.625,-4.625 C 68.61196,86.5725 67.280591,93.406097 60.90625,98.125 c -6.719804,4.97465 -15.546367,13.14484 -13.375,21.21875 z"
       style="fill:#ffe88d;fill-opacity:1;stroke:none;display:inline" />
    <path
       sodipodi:nodetypes="cccccccc"
       inkscape:connector-curvature="0"
       id="path3791"
       d="m 46.875936,139.49944 c -3.340814,6.23951 -7.791782,22.0643 -8.679436,28.49118 9.381761,1.72554 26.017755,1.7564 27.786997,13.74663 1.916564,0.42348 9.357777,-0.0187 11.324242,0.29004 7.030905,-13.92551 12.422788,-4.99228 23.063431,-11.28694 -0.652467,-8.15805 0.22798,-21.99916 -2.233193,-26.14258 -18.458562,-6.20913 -34.157154,-7.03356 -51.262044,-5.09831 z"
       style="fill:#ecfff9;fill-opacity:1;stroke:#daeeed;stroke-width:4;stroke-linejoin:round;stroke-miterlimit:4;stroke-opacity:1;stroke-dasharray:none;display:inline" />
    <path
       sodipodi:nodetypes="ccccccccc"
       inkscape:connector-curvature="0"
       id="path3793"
       d="m 82.996363,95.035546 -8.006593,7.894824 4.901644,6.12236 -7.794313,29.44105 7.86741,15.53308 11.475406,-15.90714 -4.622398,-29.73697 5.548009,-4.8556 -5.14791,-7.938422"
       style="fill:#8c3ec5;fill-opacity:1;stroke:none;display:inline" />
    <g
       id="g3813"
       transform="matrix(0.91534943,0.40266044,-0.40266044,0.91534943,43.876788,-26.902296)">
      <path
         style="fill:#ffe88d;fill-opacity:1;stroke:none;display:inline"
         d="m 77.034944,824.64204 c -31.532807,13.04115 -38.524855,35.75382 -21.362084,59.0924 18.250501,24.81771 41.461963,8.9884 50.45339,-0.13048 10.7775,-10.93026 -2.51944,-69.95136 -29.091306,-58.96192 z"
         id="path3795"
         inkscape:connector-curvature="0"
         sodipodi:nodetypes="ssss"
         transform="translate(0,-796.36218)" />
      <path
         style="fill:#e8ac1d;fill-opacity:1;stroke:none;display:inline"
         d="m 72.683318,839.36668 c 7.963524,2.70222 25.756205,-0.64836 28.794352,-5.9275 0,0 -3.866197,-8.9755 -13.354145,-10.59874 -18.778382,-3.21267 -38.4595,9.91285 -43.170604,24.36405 -4.903444,15.04119 1.496668,32.7344 6.796065,38.81285 5.29939,6.07847 17.662484,9.15521 17.662484,9.15521 0,0 -19.792237,-22.49553 -15.375606,-31.92418 4.41664,-9.42866 15.435516,2.24892 15.435516,2.24892 0,0 10.015739,-15.14815 3.211938,-26.13061 z"
         id="path3797"
         inkscape:connector-curvature="0"
         sodipodi:nodetypes="ccssscscc"
         transform="translate(0,-796.36218)" />
      <g
         id="g3799"
         style="display:inline"
         transform="translate(0,-796.36218)">
        <path
           sodipodi:nodetypes="ssss"
           inkscape:connector-curvature="0"
           id="path3801"
           d="m 102.23038,867.85431 c -7.109293,5.86427 -9.381764,14.17371 -5.956677,18.17932 3.425087,4.00562 14.564057,-2.82633 16.231937,-8.47341 1.63808,-5.54623 -5.15842,-13.92666 -10.27526,-9.70591 z"
           style="fill:#cae7e6;fill-opacity:1;stroke:none" />
        <path
           transform="matrix(-0.25562829,-0.96677514,0.96677514,-0.25562829,53.490746,1009.606)"
           d="m 114.81647,87.134064 a 5.1265244,4.0216699 0 1 1 -10.25305,0 5.1265244,4.0216699 0 1 1 10.25305,0 z"
           sodipodi:ry="4.0216699"
           sodipodi:rx="5.1265244"
           sodipodi:cy="87.134064"
           sodipodi:cx="109.68994"
           id="path3803"
           style="fill:none;stroke:#cae7e6;stroke-width:3;stroke-miterlimit:4;stroke-opacity:1;stroke-dasharray:none"
           sodipodi:type="arc" />
      </g>
    </g>
    <path
       style="fill:#ffe88d;fill-opacity:1;stroke:none"
       d="M 52.093669,120.83905 C 34.545143,116.70999 37.951533,101.39361 38.65864,94.322546 39.365747,87.251478 61.854931,50.179838 72.599766,44.825071 c 3.167262,-1.578428 12.374369,7.017767 10.253048,10.253048 -4.795888,7.314332 -29.344931,34.905592 -29.344931,40.916 0,6.010411 6.363961,1.510407 6.363961,11.409901 0,9.8995 0.06977,15.2816 -7.778175,13.43503 z"
       id="path3820"
       inkscape:connector-curvature="0"
       sodipodi:nodetypes="sssssss" />
  </g>
</svg>
