<?xml version="1.0" encoding="UTF-8" standalone="no"?>
<!-- Created with Inkscape (http://www.inkscape.org/) -->

<svg
   xmlns:dc="http://purl.org/dc/elements/1.1/"
   xmlns:cc="http://creativecommons.org/ns#"
   xmlns:rdf="http://www.w3.org/1999/02/22-rdf-syntax-ns#"
   xmlns:svg="http://www.w3.org/2000/svg"
   xmlns="http://www.w3.org/2000/svg"
   xmlns:sodipodi="http://sodipodi.sourceforge.net/DTD/sodipodi-0.dtd"
   xmlns:inkscape="http://www.inkscape.org/namespaces/inkscape"
   width="64"
   height="64"
   id="svg2994"
   version="1.1"
   inkscape:version="0.48.2 r9819"
   sodipodi:docname="toys.svg"
   inkscape:export-filename="D:\Code\limejs\economy\assets\toys0.png"
   inkscape:export-xdpi="90"
   inkscape:export-ydpi="90">
  <defs
     id="defs2996">
    <inkscape:perspective
       sodipodi:type="inkscape:persp3d"
       inkscape:vp_x="27.930718 : 72.838835 : 1"
       inkscape:vp_y="6.1230318e-014 : 1000 : 0"
       inkscape:vp_z="128 : 64 : 1"
       inkscape:persp3d-origin="64 : 42.666667 : 1"
       id="perspective3002" />
  </defs>
  <sodipodi:namedview
     id="base"
     pagecolor="#ffffff"
     bordercolor="#666666"
     borderopacity="1.0"
     inkscape:pageopacity="0.0"
     inkscape:pageshadow="2"
     inkscape:zoom="8"
     inkscape:cx="-9.1736365"
     inkscape:cy="18.895327"
     inkscape:document-units="px"
     inkscape:current-layer="layer3"
     showgrid="false"
     inkscape:window-width="1920"
     inkscape:window-height="1018"
     inkscape:window-x="1072"
     inkscape:window-y="832"
     inkscape:window-maximized="1" />
  <metadata
     id="metadata2999">
    <rdf:RDF>
      <cc:Work
         rdf:about="">
        <dc:format>image/svg+xml</dc:format>
        <dc:type
           rdf:resource="http://purl.org/dc/dcmitype/StillImage" />
        <dc:title></dc:title>
      </cc:Work>
    </rdf:RDF>
  </metadata>
  <g
     inkscape:label="ABC"
     inkscape:groupmode="layer"
     id="layer1"
     transform="translate(0,-988.36218)"
     style="display:inline">
    <path
       style="fill:#ffe493;fill-opacity:1;stroke:none"
       d="m 2.347272,1022.4533 0.07322,21.7444 22.406445,5.8226 5.170719,-8.4742 -0.176777,-22.6274 -19.845864,-3.9833 z"
       id="path3834"
       inkscape:connector-curvature="0"
       sodipodi:nodetypes="ccccccc" />
    <path
       style="fill:#fde483;fill-opacity:1;stroke:none"
       d="m 39.278437,1046.5842 -8.927224,-7.8666 0,-22.2738 22.097087,-5.0382 9.19239,8.0434 -0.17678,22.1855 z"
       id="path3836"
       inkscape:connector-curvature="0"
       sodipodi:nodetypes="ccccccc" />
    <path
       style="fill:#ffedae;fill-opacity:1;stroke:none"
       d="m 27.787951,1023.0729 -9.457553,-5.8336 -0.08839,-21.30162 21.655145,-2.47488 10.076272,4.15426 -0.265165,22.00874 z"
       id="path3838"
       inkscape:connector-curvature="0"
       sodipodi:nodetypes="ccccccc" />
    <g
       id="g3824"
       transform="matrix(0.5,-0.0689733,0,0.5,-0.407932,538.48113)">
      <rect
         y="933.20782"
         x="57.282486"
         height="43.133514"
         width="43.133514"
         id="rect3018"
         style="fill:none;stroke:#ff0000;stroke-width:3;stroke-linejoin:round;stroke-miterlimit:4;stroke-opacity:1;stroke-dasharray:none" />
      <text
         sodipodi:linespacing="125%"
         id="text3788"
         y="969.091"
         x="65.509399"
         style="font-size:40px;font-style:normal;font-weight:normal;line-height:125%;letter-spacing:0px;word-spacing:0px;fill:#000000;fill-opacity:1;stroke:none;font-family:Sans"
         xml:space="preserve"><tspan
           style="fill:#ff0000;fill-opacity:1"
           y="969.091"
           x="65.509399"
           id="tspan3790"
           sodipodi:role="line">A</tspan></text>
    </g>
    <g
       id="g3819"
       transform="matrix(0.5,0.11495549,0,0.5,-4.650572,523.19878)">
      <rect
         style="fill:none;stroke:#008aff;stroke-width:3;stroke-linejoin:round;stroke-miterlimit:4;stroke-opacity:1;stroke-dasharray:none"
         id="rect3792"
         width="43.133514"
         height="43.133514"
         x="14.856079"
         y="996.14032" />
      <text
         xml:space="preserve"
         style="font-size:40px;font-style:normal;font-weight:normal;line-height:125%;letter-spacing:0px;word-spacing:0px;fill:#008aff;fill-opacity:1;stroke:none;font-family:Sans"
         x="22.682602"
         y="1032.0234"
         id="text3794"
         sodipodi:linespacing="125%"><tspan
           sodipodi:role="line"
           id="tspan3796"
           x="22.682602"
           y="1032.0234"
           style="fill:#008aff;fill-opacity:1">B</tspan></text>
    </g>
    <g
       id="g3829"
       transform="matrix(0.5,-0.1072918,0,0.5,0.829505,537.33869)">
      <rect
         y="991.19055"
         x="77.788582"
         height="43.133514"
         width="43.133514"
         id="rect3798"
         style="fill:none;stroke:#ffc200;stroke-width:3;stroke-linejoin:round;stroke-miterlimit:4;stroke-opacity:1;stroke-dasharray:none" />
      <text
         sodipodi:linespacing="125%"
         id="text3800"
         y="1027.0737"
         x="84.706902"
         style="font-size:40px;font-style:normal;font-weight:normal;line-height:125%;letter-spacing:0px;word-spacing:0px;fill:#ffc200;fill-opacity:1;stroke:none;font-family:Sans"
         xml:space="preserve"><tspan
           style="fill:#ffc200;fill-opacity:1"
           y="1027.0737"
           x="84.706902"
           id="tspan3802"
           sodipodi:role="line">C</tspan></text>
    </g>
  </g>
  <g
     inkscape:groupmode="layer"
     id="layer2"
     inkscape:label="Teddy"
     style="display:none"
     transform="translate(0,-64)">
    <path
       style="fill:#a98012;fill-opacity:1;stroke:none"
       d="m 16.972642,100.43227 c -6.724552,-0.665251 -10.439579,10.97697 -4.507806,15.55635 5.172184,3.99297 11.136932,0.0884 11.578874,0 0.441942,1.94454 0.618718,2.47487 1.944544,3.97748 2.690698,3.04946 9.797682,3.65582 10.606601,3.97747 1.907567,0.75852 2.427293,-1.81534 1.944544,-3.35875 2.936174,1.0842 8.906103,1.15552 13.387694,-0.0244 1.042859,-0.27458 2.718914,-7.57355 1.618477,-8.70194 -0.435107,-0.44617 -3.75138,-1.59291 -2.872917,0.95593 0.265165,-1.32583 1.436575,-4.1901 0.110755,-5.33915 -2.150937,-1.86415 -3.386469,-1.16723 -4.574748,-0.0518 -0.821876,0.7715 0.578225,2.89926 -0.77497,3.92478 -0.353875,0.26818 -2.665855,0.56124 -4.74448,-0.51387 0.618718,-0.97227 0.571383,-1.59727 -0.135724,-2.30437 -0.707106,-0.70714 -6.610281,-3.85511 -9.085155,-3.58994 -2.474874,0.26516 -3.535534,0.79549 -3.535534,0.79549 -2.811312,-3.56099 -7.451621,-4.95621 -10.960155,-5.3033 z"
       id="path3841"
       inkscape:connector-curvature="0"
       sodipodi:nodetypes="sscsscsscssscsscs" />
    <path
       sodipodi:type="arc"
       style="fill:#a98012;fill-opacity:1;stroke:none"
       id="path3843"
       sodipodi:cx="14.230524"
       sodipodi:cy="100.42284"
       sodipodi:rx="7.5130095"
       sodipodi:ry="7.601398"
       d="m 21.743534,100.42284 a 7.5130095,7.601398 0 1 1 -15.0260195,0 7.5130095,7.601398 0 1 1 15.0260195,0 z"
       transform="matrix(0.5,0,0,0.5,4.421497,64.451376)" />
    <path
       sodipodi:type="arc"
       style="fill:#a98012;fill-opacity:1;stroke:none"
       id="path3845"
       sodipodi:cx="18.561554"
       sodipodi:cy="74.966988"
       sodipodi:rx="7.9549513"
       sodipodi:ry="4.4194174"
       d="m 26.516505,74.966988 a 7.9549513,4.4194174 0 1 1 -15.909902,0 7.9549513,4.4194174 0 1 1 15.909902,0 z"
       transform="matrix(0.5,0,0,0.82,3.18406,41.876153)" />
    <path
       sodipodi:type="arc"
       style="fill:#000000;fill-opacity:1;stroke:none"
       id="path3847"
       sodipodi:cx="24.660349"
       sodipodi:cy="81.772896"
       sodipodi:rx="2.3864853"
       sodipodi:ry="2.032932"
       d="m 27.046834,81.772896 a 2.3864853,2.032932 0 1 1 -4.77297,0 2.3864853,2.032932 0 1 1 4.77297,0 z"
       transform="matrix(0.5,0,0,0.5,4.421497,64.451376)" />
    <path
       sodipodi:type="arc"
       style="fill:#000000;fill-opacity:1;stroke:none"
       id="path3849"
       sodipodi:cx="24.04163"
       sodipodi:cy="90.611732"
       sodipodi:rx="3.0052037"
       sodipodi:ry="2.032932"
       d="m 27.046834,90.611732 a 3.0052037,2.032932 0 1 1 -6.010408,0 3.0052037,2.032932 0 1 1 6.010408,0 z"
       transform="matrix(0.5,0,0,0.5,4.421497,64.451376)" />
    <path
       sodipodi:type="arc"
       style="fill:#fad9a2;fill-opacity:1;stroke:none"
       id="path3853"
       sodipodi:cx="38.095379"
       sodipodi:cy="82.480003"
       sodipodi:rx="5.5684662"
       sodipodi:ry="3.4471455"
       d="m 43.663845,82.480003 a 5.5684662,3.4471455 0 1 1 -11.136932,0 5.5684662,3.4471455 0 1 1 11.136932,0 z"
       transform="matrix(0.5,0,0,0.5,4.686662,65.070094)" />
    <path
       sodipodi:type="arc"
       style="fill:#000000;fill-opacity:1;stroke:none"
       id="path3851"
       sodipodi:cx="39.50959"
       sodipodi:cy="82.214836"
       sodipodi:rx="1.5026019"
       sodipodi:ry="1.4142135"
       d="m 41.012192,82.214836 a 1.5026019,1.4142135 0 1 1 -3.005204,0 1.5026019,1.4142135 0 1 1 3.005204,0 z"
       transform="matrix(0.5,0,0,0.5,3.095671,64.274599)" />
    <path
       style="fill:#d22435;fill-opacity:1;stroke:none"
       d="m 23.955322,116.13225 c 2.255349,-2.48838 4.732237,-5.49878 4.00727,-10.50896 l 1.581187,-0.4195 c 1.271609,5.23832 -0.6581,10.02726 -4.804011,13.38124 z"
       id="path3855"
       inkscape:connector-curvature="0"
       sodipodi:nodetypes="ccccc" />
    <path
       style="fill:#db3a4a;fill-opacity:1;stroke:none"
       d="m 26.960525,111.17145 -3.226174,1.59099 1.458407,1.94455 2.872622,-2.2539 6.187184,4.72877 1.237437,-1.01646 -6.14299,-4.77297 5.568466,-0.39775 -1.37002,-1.37002 -4.596194,0.30936 -0.441941,-3.00521 -1.590991,0.7955 z"
       id="path3857"
       inkscape:connector-curvature="0" />
  </g>
  <g
     inkscape:groupmode="layer"
     id="layer3"
     inkscape:label="Ball"
     transform="translate(0,-64)"
     style="display:none">
    <path
       sodipodi:type="arc"
       style="fill:#db3a4a;fill-opacity:1;stroke:none"
       id="path3860"
       sodipodi:cx="71"
       sodipodi:cy="92"
       sodipodi:rx="42"
       sodipodi:ry="42"
       d="m 113,92 a 42,42 0 1 1 -84,0 42,42 0 1 1 84,0 z"
       transform="matrix(0.30952381,0,0,0.30952381,12.02381,77.52381)" />
    <path
       sodipodi:type="star"
       style="fill:#dbc83a;fill-opacity:1;stroke:none"
       id="path3862"
       sodipodi:sides="5"
       sodipodi:cx="59.875"
       sodipodi:cy="43.875"
       sodipodi:r1="29.732662"
       sodipodi:r2="14.866332"
       sodipodi:arg1="0.66620536"
       sodipodi:arg2="1.2945239"
       inkscape:flatsided="false"
       inkscape:rounded="0"
       inkscape:randomized="0"
       d="M 83.249999,62.249999 63.930109,58.177584 49.622609,71.784133 47.525532,52.15138 30.163675,42.748793 48.1875,34.6875 l 3.577282,-19.417667 13.236414,14.6506 19.572739,-2.598191 -9.843271,17.115862 z"
       inkscape:transform-center-x="0.77572676"
       inkscape:transform-center-y="-0.10771934"
       transform="matrix(0.30952381,0,0,0.30952381,17.479167,90.136905)" />
  </g>
</svg>
