<?xml version="1.0" encoding="UTF-8" standalone="no"?>
<!-- Created with Inkscape (http://www.inkscape.org/) -->

<svg
   xmlns:dc="http://purl.org/dc/elements/1.1/"
   xmlns:cc="http://creativecommons.org/ns#"
   xmlns:rdf="http://www.w3.org/1999/02/22-rdf-syntax-ns#"
   xmlns:svg="http://www.w3.org/2000/svg"
   xmlns="http://www.w3.org/2000/svg"
   xmlns:sodipodi="http://sodipodi.sourceforge.net/DTD/sodipodi-0.dtd"
   xmlns:inkscape="http://www.inkscape.org/namespaces/inkscape"
   width="128"
   height="128"
   id="svg2994"
   version="1.1"
   inkscape:version="0.48.2 r9819"
   sodipodi:docname="toys.svg"
   inkscape:export-filename="D:\Code\limejs\economy\assets\toys0.png"
   inkscape:export-xdpi="90"
   inkscape:export-ydpi="90">
  <defs
     id="defs2996">
    <inkscape:perspective
       sodipodi:type="inkscape:persp3d"
       inkscape:vp_x="27.930718 : 72.838835 : 1"
       inkscape:vp_y="6.1230318e-014 : 1000 : 0"
       inkscape:vp_z="128 : 64 : 1"
       inkscape:persp3d-origin="64 : 42.666667 : 1"
       id="perspective3002" />
  </defs>
  <sodipodi:namedview
     id="base"
     pagecolor="#ffffff"
     bordercolor="#666666"
     borderopacity="1.0"
     inkscape:pageopacity="0.0"
     inkscape:pageshadow="2"
     inkscape:zoom="2"
     inkscape:cx="-129.77855"
     inkscape:cy="26.668142"
     inkscape:document-units="px"
     inkscape:current-layer="layer1"
     showgrid="false"
     inkscape:window-width="1920"
     inkscape:window-height="1018"
     inkscape:window-x="1072"
     inkscape:window-y="832"
     inkscape:window-maximized="1" />
  <metadata
     id="metadata2999">
    <rdf:RDF>
      <cc:Work
         rdf:about="">
        <dc:format>image/svg+xml</dc:format>
        <dc:type
           rdf:resource="http://purl.org/dc/dcmitype/StillImage" />
        <dc:title></dc:title>
      </cc:Work>
    </rdf:RDF>
  </metadata>
  <g
     inkscape:label="ABC"
     inkscape:groupmode="layer"
     id="layer1"
     transform="translate(0,-924.36218)"
     style="display:inline">
    <path
       style="fill:#ffe493;fill-opacity:1;stroke:none"
       d="m 3.0355339,996.45142 0.146447,43.46658 44.8128911,4.7972 12.341438,-16.4804 -0.353554,-45.20084 -39.691729,-1.90128 z"
       id="path3834"
       inkscape:connector-curvature="0"
       sodipodi:nodetypes="ccccccc" />
    <path
       style="fill:#fde997;fill-opacity:1;stroke:none"
       d="m 76.897863,115.44885 -17.854447,-15.733118 0,-44.54773 44.194174,-10.076272 18.38478,16.086679 -0.35356,44.370951 z"
       id="path3836"
       inkscape:connector-curvature="0"
       sodipodi:nodetypes="ccccccc"
       transform="translate(0,924.36218)" />
    <path
       style="fill:#ffedae;fill-opacity:1;stroke:none"
       d="m 53.916892,992.78843 -18.915106,-11.66726 -0.176777,-42.60318 43.31029,-4.94975 20.152544,8.30851 -0.53033,44.01739 z"
       id="path3838"
       inkscape:connector-curvature="0"
       sodipodi:nodetypes="ccccccc" />
    <g
       id="g3824"
       transform="matrix(1,-0.13794659,0,1,-2.4748737,23.604906)">
      <rect
         y="933.20782"
         x="57.282486"
         height="43.133514"
         width="43.133514"
         id="rect3018"
         style="fill:none;stroke:#ff0000;stroke-width:3;stroke-linejoin:round;stroke-miterlimit:4;stroke-opacity:1;stroke-dasharray:none" />
      <text
         sodipodi:linespacing="125%"
         id="text3788"
         y="969.091"
         x="65.509399"
         style="font-size:40px;font-style:normal;font-weight:normal;line-height:125%;letter-spacing:0px;word-spacing:0px;fill:#000000;fill-opacity:1;stroke:none;font-family:Sans"
         xml:space="preserve"><tspan
           style="fill:#ff0000;fill-opacity:1"
           y="969.091"
           x="65.509399"
           id="tspan3790"
           sodipodi:role="line">A</tspan></text>
    </g>
    <g
       id="g3819"
       transform="matrix(1,0.07710015,0,1,-10.960155,0.081157)">
      <rect
         style="fill:none;stroke:#008aff;stroke-width:3;stroke-linejoin:round;stroke-miterlimit:4;stroke-opacity:1;stroke-dasharray:none"
         id="rect3792"
         width="43.133514"
         height="43.133514"
         x="14.856079"
         y="996.14032" />
      <text
         xml:space="preserve"
         style="font-size:40px;font-style:normal;font-weight:normal;line-height:125%;letter-spacing:0px;word-spacing:0px;fill:#008aff;fill-opacity:1;stroke:none;font-family:Sans"
         x="22.682602"
         y="1032.0234"
         id="text3794"
         sodipodi:linespacing="125%"><tspan
           sodipodi:role="line"
           id="tspan3796"
           x="22.682602"
           y="1032.0234"
           style="fill:#008aff;fill-opacity:1">B</tspan></text>
    </g>
    <g
       id="g3829"
       transform="matrix(1,-0.21458359,0,1,0,21.320025)">
      <rect
         y="991.19055"
         x="77.788582"
         height="43.133514"
         width="43.133514"
         id="rect3798"
         style="fill:none;stroke:#ffc200;stroke-width:3;stroke-linejoin:round;stroke-miterlimit:4;stroke-opacity:1;stroke-dasharray:none" />
      <text
         sodipodi:linespacing="125%"
         id="text3800"
         y="1027.0737"
         x="84.706902"
         style="font-size:40px;font-style:normal;font-weight:normal;line-height:125%;letter-spacing:0px;word-spacing:0px;fill:#ffc200;fill-opacity:1;stroke:none;font-family:Sans"
         xml:space="preserve"><tspan
           style="fill:#ffc200;fill-opacity:1"
           y="1027.0737"
           x="84.706902"
           id="tspan3802"
           sodipodi:role="line">C</tspan></text>
    </g>
  </g>
  <g
     inkscape:groupmode="layer"
     id="layer2"
     inkscape:label="Teddy"
     style="display:none">
    <path
       style="fill:#a98012;fill-opacity:1;stroke:none"
       d="M 25.102291,71.961787 C 11.653186,70.631286 4.223133,93.915729 16.086679,103.07449 c 10.344368,7.98594 22.273864,0.17677 23.157747,0 0.883884,3.88908 1.237437,4.94974 3.889088,7.95495 5.381397,6.09892 19.595364,7.31164 21.213203,7.95495 3.815133,1.51704 4.854586,-3.63069 3.889088,-6.71751 5.872348,2.16841 17.812206,2.31104 26.775387,-0.0489 2.085719,-0.54915 5.437828,-15.147083 3.236954,-17.403879 -0.870213,-0.892326 -7.502759,-3.185808 -5.745834,1.911869 0.53033,-2.651654 2.87315,-8.380208 0.22151,-10.678305 -4.301874,-3.728296 -6.772937,-2.334462 -9.149496,-0.103554 -1.643751,1.543011 1.156451,5.798532 -1.549939,7.849559 -0.70775,0.536365 -5.331711,1.122483 -9.488961,-1.027729 1.237436,-1.944543 1.142767,-3.194544 -0.271447,-4.608757 -1.414213,-1.414174 -13.220563,-7.710115 -18.170311,-7.179785 -4.949747,0.53033 -7.071067,1.59099 -7.071067,1.59099 -5.622624,-7.12199 -14.903243,-9.912413 -21.92031,-10.606602 z"
       id="path3841"
       inkscape:connector-curvature="0"
       sodipodi:nodetypes="sscsscsscssscsscs" />
    <path
       sodipodi:type="arc"
       style="fill:#a98012;fill-opacity:1;stroke:none"
       id="path3843"
       sodipodi:cx="14.230524"
       sodipodi:cy="100.42284"
       sodipodi:rx="7.5130095"
       sodipodi:ry="7.601398"
       d="m 21.743534,100.42284 a 7.5130095,7.601398 0 1 1 -15.0260195,0 7.5130095,7.601398 0 1 1 15.0260195,0 z" />
    <path
       sodipodi:type="arc"
       style="fill:#a98012;fill-opacity:1;stroke:none"
       id="path3845"
       sodipodi:cx="18.561554"
       sodipodi:cy="74.966988"
       sodipodi:rx="7.9549513"
       sodipodi:ry="4.4194174"
       d="m 26.516505,74.966988 a 7.9549513,4.4194174 0 1 1 -15.909902,0 7.9549513,4.4194174 0 1 1 15.909902,0 z"
       transform="matrix(1,0,0,1.64,-2.4748737,-45.150445)" />
    <path
       sodipodi:type="arc"
       style="fill:#000000;fill-opacity:1;stroke:none"
       id="path3847"
       sodipodi:cx="24.660349"
       sodipodi:cy="81.772896"
       sodipodi:rx="2.3864853"
       sodipodi:ry="2.032932"
       d="m 27.046834,81.772896 a 2.3864853,2.032932 0 1 1 -4.77297,0 2.3864853,2.032932 0 1 1 4.77297,0 z" />
    <path
       sodipodi:type="arc"
       style="fill:#000000;fill-opacity:1;stroke:none"
       id="path3849"
       sodipodi:cx="24.04163"
       sodipodi:cy="90.611732"
       sodipodi:rx="3.0052037"
       sodipodi:ry="2.032932"
       d="m 27.046834,90.611732 a 3.0052037,2.032932 0 1 1 -6.010408,0 3.0052037,2.032932 0 1 1 6.010408,0 z" />
    <path
       sodipodi:type="arc"
       style="fill:#fad9a2;fill-opacity:1;stroke:none"
       id="path3853"
       sodipodi:cx="38.095379"
       sodipodi:cy="82.480003"
       sodipodi:rx="5.5684662"
       sodipodi:ry="3.4471455"
       d="m 43.663845,82.480003 a 5.5684662,3.4471455 0 1 1 -11.136932,0 5.5684662,3.4471455 0 1 1 11.136932,0 z"
       transform="translate(0.53033009,1.2374369)" />
    <path
       sodipodi:type="arc"
       style="fill:#000000;fill-opacity:1;stroke:none"
       id="path3851"
       sodipodi:cx="39.50959"
       sodipodi:cy="82.214836"
       sodipodi:rx="1.5026019"
       sodipodi:ry="1.4142135"
       d="m 41.012192,82.214836 a 1.5026019,1.4142135 0 1 1 -3.005204,0 1.5026019,1.4142135 0 1 1 3.005204,0 z"
       transform="translate(-2.6516504,-0.35355337)" />
    <path
       style="fill:#d22435;fill-opacity:1;stroke:none"
       d="m 39.06765,103.36175 c 4.510698,-4.976766 9.464475,-10.997557 8.01454,-21.017932 l 3.162374,-0.839 c 2.543219,10.476655 -1.316199,20.054532 -9.608021,26.762482 z"
       id="path3855"
       inkscape:connector-curvature="0"
       sodipodi:nodetypes="ccccc" />
    <path
       style="fill:#db3a4a;fill-opacity:1;stroke:none"
       d="m 45.078057,93.440156 -6.452349,3.181981 2.916815,3.889083 5.745243,-4.507802 12.374369,9.457552 2.474874,-2.03293 -12.285981,-9.545942 11.136932,-0.795495 -2.740039,-2.740039 -9.192388,0.618718 -0.883883,-6.010407 -3.181981,1.59099 z"
       id="path3857"
       inkscape:connector-curvature="0" />
  </g>
  <g
     inkscape:groupmode="layer"
     id="layer3"
     inkscape:label="Ball"
     style="display:none">
    <path
       sodipodi:type="arc"
       style="fill:#db3a4a;fill-opacity:1;stroke:none"
       id="path3860"
       sodipodi:cx="71"
       sodipodi:cy="92"
       sodipodi:rx="42"
       sodipodi:ry="42"
       d="m 113,92 a 42,42 0 1 1 -84,0 42,42 0 1 1 84,0 z"
       transform="matrix(0.61904762,0,0,0.61904762,22.047619,32.047619)" />
    <path
       sodipodi:type="star"
       style="fill:#dbc83a;fill-opacity:1;stroke:none"
       id="path3862"
       sodipodi:sides="5"
       sodipodi:cx="59.875"
       sodipodi:cy="43.875"
       sodipodi:r1="29.732662"
       sodipodi:r2="14.866332"
       sodipodi:arg1="0.66620536"
       sodipodi:arg2="1.2945239"
       inkscape:flatsided="false"
       inkscape:rounded="0"
       inkscape:randomized="0"
       d="M 83.249999,62.249999 63.930109,58.177584 49.622609,71.784133 47.525532,52.15138 30.163675,42.748793 48.1875,34.6875 l 3.577282,-19.417667 13.236414,14.6506 19.572739,-2.598191 -9.843271,17.115862 z"
       inkscape:transform-center-x="1.5514545"
       inkscape:transform-center-y="-0.21543864"
       transform="matrix(0.61904762,0,0,0.61904762,32.958333,57.27381)" />
  </g>
</svg>
